<svg xmlns="http://www.w3.org/2000/svg" width="11" height="14" viewBox="0 0 11 14">
    <g>
        <g>
            <path fill="white"
                d="M3.208 13.5C1.696 13.5.47 12.41.47 11.062V9.438c0-1.068.775-1.965 1.848-2.295a4.019 4.019 0 0 1-.935-2.58C1.383 2.319 3.22.5 5.49.5c2.268 0 4.107 1.819 4.107 4.063a4.02 4.02 0 0 1-.935 2.58c1.072.33 1.848 1.227 1.848 2.295v1.624c0 1.347-1.226 2.438-2.739 2.438zm5.476-8.937c0-1.795-1.43-3.25-3.194-3.25s-3.195 1.455-3.195 3.25c0 1.794 1.43 3.25 3.195 3.25 1.764 0 3.194-1.456 3.194-3.25zm.913 5.078c0-.864-.736-1.583-1.723-1.775a4.113 4.113 0 0 1-2.384.759c-.89 0-1.712-.283-2.384-.759-.987.192-1.723.911-1.723 1.775v1.218c0 1.01 1.003 1.829 2.24 1.829h3.734c1.237 0 2.24-.819 2.24-1.829z" />
        </g>
    </g>
</svg>
