<svg xmlns="http://www.w3.org/2000/svg" width="13" height="20" viewBox="0 0 13 20">
    <g>
        <g opacity="1">
            <path d="M-.113 3.75C-.113 1.679 2.017 0 4.642 0 7.27 0 9.398 1.679 9.398 3.75V15c0 1.38-1.42 2.5-3.17 2.5-1.751 0-3.17-1.12-3.17-2.5V5h1.584v10c0 .69.71 1.25 1.586 1.25.875 0 1.585-.56 1.585-1.25V3.75c0-1.38-1.42-2.5-3.17-2.5-1.752 0-3.171 1.12-3.171 2.5V15c0 2.071 2.13 3.75 4.756 3.75 2.626 0 4.755-1.679 4.755-3.75V2.5h1.585v13.125C12.178 18.091 9.461 20 6.228 20c-3.233 0-5.95-1.91-6.341-4.375z"/>
        </g>
    </g>
</svg>
