<svg xmlns="http://www.w3.org/2000/svg" width="15" height="20" viewBox="0 0 15 20">
    <g>
        <g opacity=".1">
            <path d="M6.547 20a.637.637 0 0 1-.65-.625c0-.345.291-.625.65-.625h.648v-1.278c-3.202-.278-5.913-2.598-6.485-5.597h1.297c.59 2.504 3.06 4.375 5.836 4.375 2.777 0 5.247-1.87 5.837-4.375h1.297c-.573 3-3.283 5.319-6.485 5.597v1.278h.648c.359 0 .649.28.649.625S9.499 20 9.14 20zm1.296-5c-2.507 0-4.539-1.959-4.539-4.375v-6.25C3.304 1.96 5.336 0 7.844 0c2.506 0 4.539 1.959 4.539 4.375v6.25c0 2.416-2.033 4.375-4.54 4.375zm3.243-10.625c0-1.726-1.452-3.125-3.243-3.125-1.79 0-3.242 1.4-3.242 3.125v6.25c0 1.726 1.452 3.125 3.242 3.125 1.791 0 3.243-1.399 3.243-3.125z"/>
        </g>
    </g>
</svg>
