<svg xmlns="http://www.w3.org/2000/svg" width="16" height="15" viewBox="0 0 16 15"><g><g opacity=".5"><path fill="#fff" d="M13.574 6.48c.065.332.108.67.108 1.02s-.043.688-.108 1.02l1.16.63c.474.258.637.829.363 1.275l-.991 1.617c-.274.446-.88.599-1.354.341l-1.172-.637a6.034 6.034 0 0 1-1.863 1.029v.791c0 .516-.443.934-.99.934H6.743c-.547 0-.991-.418-.991-.933v-.792a6.036 6.036 0 0 1-1.863-1.03l-1.172.638c-.474.258-1.08.105-1.354-.341l-.991-1.617C.099 9.979.262 9.408.736 9.15l1.16-.63a5.27 5.27 0 0 1-.108-1.02c0-.35.043-.688.108-1.02l-1.16-.63C.262 5.592.099 5.02.373 4.575l.991-1.617c.274-.446.88-.6 1.354-.341l1.172.637a6.029 6.029 0 0 1 1.863-1.029v-.792c0-.515.444-.933.99-.933h1.983c.548 0 .991.418.991.933v.792c.692.231 1.315.59 1.863 1.03l1.172-.638c.474-.258 1.08-.105 1.354.341l.991 1.617c.274.446.111 1.017-.363 1.275zm-.079-2.651a.513.513 0 0 0-.676-.17l-1.377.748a5.021 5.021 0 0 0-2.716-1.48V1.9c0-.258-.222-.467-.495-.467h-.992c-.273 0-.495.21-.495.467v1.027a5.021 5.021 0 0 0-2.716 1.48l-1.376-.749a.513.513 0 0 0-.677.171l-.496.808a.452.452 0 0 0 .181.638l1.383.751A4.391 4.391 0 0 0 2.779 7.5c0 .516.1 1.01.264 1.473l-1.383.752a.452.452 0 0 0-.18.638l.495.808c.136.223.44.3.677.17l1.376-.748a5.021 5.021 0 0 0 2.716 1.48V13.1c0 .258.222.467.495.467h.992c.273 0 .495-.21.495-.467v-1.027a5.021 5.021 0 0 0 2.716-1.48l1.377.749c.236.128.54.052.676-.171l.496-.808a.452.452 0 0 0-.181-.638l-1.383-.752c.165-.464.264-.957.264-1.473 0-.517-.099-1.01-.264-1.474l1.383-.751a.452.452 0 0 0 .181-.638zm-5.76 6.004c-1.368 0-2.478-1.044-2.478-2.333 0-1.289 1.11-2.333 2.478-2.333S10.213 6.21 10.213 7.5c0 1.289-1.11 2.333-2.478 2.333zm0-3.733c-.821 0-1.487.627-1.487 1.4 0 .773.666 1.4 1.487 1.4.821 0 1.487-.627 1.487-1.4 0-.773-.666-1.4-1.487-1.4z"/></g></g></svg>
