<svg xmlns="http://www.w3.org/2000/svg" width="18" height="17" viewBox="0 0 18 17"><g><g opacity=".5"><path fill="#fff" d="M8.796 14.5c-.548 0-1.082-.046-1.601-.127L3.442 16.5v-3.54C1.486 11.677.23 9.71.23 7.5c0-3.866 3.835-7 8.566-7 4.73 0 8.566 3.134 8.566 7s-3.835 7-8.566 7zm0-13c-4.14 0-7.495 2.686-7.495 6 0 2.033 1.266 3.827 3.199 4.912l-.034 2.32 2.52-1.415c.58.115 1.185.183 1.81.183 4.14 0 7.495-2.686 7.495-6s-3.356-6-7.495-6zM5.048 7c-.295 0-.535-.224-.535-.5s.24-.5.535-.5h7.496c.295 0 .535.224.535.5s-.24.5-.535.5zm6.425 2c.296 0 .535.224.535.5s-.24.5-.535.5H6.119c-.296 0-.535-.224-.535-.5s.24-.5.535-.5z"/></g></g></svg>